<svg width="1892" height="801" viewBox="0 0 1892 801" fill="none" xmlns="http://www.w3.org/2000/svg">
<path d="M1891.3 139.604L1740.39 394.189V546.248H1634.41V392.461L1483.5 139.604H1607.34L1687.98 298.575L1769.77 139.604H1891.3Z" fill="#242269"/>
<path d="M1465.35 139.604L1314.44 299.151L1483.78 546.248H1352.46L1243.02 375.757L1199.82 420.684V546.248H1094.42V139.604H1199.82V298.575L1332.87 139.604H1465.35Z" fill="#242269"/>
<path d="M1018.69 261.712L917.892 261.136C916.74 224.849 885.061 211.601 852.806 211.601C852.23 211.601 798.087 209.297 798.087 247.312C798.087 256.528 800.391 266.32 817.671 273.808C825.735 277.264 860.87 286.479 891.973 294.543C897.157 295.695 952.451 307.791 984.706 327.95C1018.11 348.686 1035.39 380.365 1035.39 420.108C1035.39 441.995 1030.21 491.53 979.522 525.513C957.635 539.912 921.924 554.888 862.022 554.888C812.487 554.888 757.192 544.52 719.753 508.809C682.314 472.522 680.01 427.019 680.01 409.164L786.568 409.74C787.144 417.804 787.72 446.027 811.911 461.579C831.494 474.25 863.173 474.25 867.205 474.25C870.085 474.25 896.581 474.826 912.708 463.882C913.86 463.306 919.044 459.275 922.5 454.091C928.26 445.451 928.836 436.235 928.836 432.779C928.836 405.132 904.644 398.22 863.173 385.549C848.774 380.941 834.374 376.909 819.975 372.877C814.215 371.725 765.256 359.629 735.305 338.894C710.538 321.614 703.05 299.151 700.17 287.631C698.442 282.447 695.562 269.776 695.562 254.8C695.562 232.913 701.322 189.138 749.129 158.035C770.44 144.211 800.967 130.388 856.838 130.388C865.477 130.388 886.213 130.388 909.828 135.571C927.108 139.027 984.13 152.851 1008.32 206.993C1013.51 219.665 1018.11 233.489 1018.69 261.712Z" fill="#242269"/>
<path d="M154.024 284.919C86.4892 352.863 86.4892 462.936 154.024 530.879C221.559 598.823 330.97 598.823 398.504 530.879C431.093 498.088 449.13 454.279 449.13 407.909H552.107C552.107 478.928 525.175 549.947 471.311 604.137L276.264 800.364L81.2171 604.137C-26.5099 495.758 -26.5099 320.041 81.2171 211.672C135.071 157.482 205.672 130.388 276.264 130.388V233.977C230.169 233.977 186.619 252.127 154.024 284.919Z" fill="url(#paint0_linear_969_102)"/>
<path d="M350.181 482.266C309.358 523.337 243.176 523.337 202.352 482.266C161.529 441.195 161.529 374.613 202.352 333.542C243.176 292.472 309.358 292.472 350.181 333.542C391.005 374.613 391.005 441.195 350.181 482.266Z" fill="#242269"/>
<path d="M1349.67 736.97H1401.45C1401.45 741.189 1402.07 744.871 1403.29 748.016C1405.37 752.848 1408.86 756.07 1413.77 757.681C1418.44 759.369 1423.24 760.212 1428.15 760.212C1432.67 760.366 1437.35 759.369 1442.19 757.221C1446.94 754.996 1449.4 750.892 1449.55 744.909C1449.7 740.69 1447.33 737.315 1442.42 734.783C1437.28 732.405 1427.53 729.337 1413.19 725.578C1406.44 723.737 1399.84 721.705 1393.4 719.48C1386.65 717.256 1380.55 714.417 1375.1 710.965C1369.58 707.514 1365.09 702.949 1361.64 697.273C1358.04 691.98 1356.23 685.153 1356.23 676.792C1356.54 657.308 1363.6 643.117 1377.41 634.218C1390.6 625.55 1406.17 621.216 1424.12 621.216C1442.91 621.063 1459.1 624.975 1472.68 632.953C1485.87 641.467 1493.08 655.85 1494.31 676.101H1445.29C1445.91 669.811 1443.87 665.324 1439.19 662.639C1434.59 659.877 1429.49 658.497 1423.89 658.497C1420.06 658.497 1416.1 659.187 1412.04 660.568C1410.2 661.335 1408.63 662.447 1407.32 663.905C1405.94 665.439 1405.25 667.395 1405.25 669.773C1405.56 672.611 1407.21 674.951 1410.2 676.792C1413.04 678.863 1416.72 680.665 1421.24 682.2C1430.83 685.038 1441.76 687.953 1454.04 690.944C1460.17 692.555 1466.04 694.511 1471.64 696.813C1477.16 699.037 1482.19 702.029 1486.72 705.788C1491.32 709.546 1494.96 714.11 1497.65 719.48C1500.1 725.157 1501.33 731.83 1501.33 739.501C1500.87 761.056 1492.7 776.129 1476.82 784.721C1461.17 793.389 1443.45 797.646 1423.66 797.493C1418.75 797.493 1412.31 796.764 1404.33 795.307C1396.28 793.926 1388.11 791.203 1379.82 787.137C1371.61 782.995 1364.67 776.858 1359 768.727C1353.24 760.903 1350.14 750.317 1349.67 736.97Z" fill="url(#paint1_linear_969_102)"/>
<path d="M1288.77 625.243V728.455C1288.77 774.634 1263.22 797.646 1212.14 797.493C1160.97 797.646 1135.39 774.634 1135.39 728.455V625.243H1187.17V716.834C1187.17 721.129 1187.32 725.463 1187.63 729.836C1187.93 734.362 1188.89 738.619 1190.5 742.608C1192.04 746.366 1194.53 749.435 1197.98 751.813C1201.44 754.267 1206.23 755.495 1212.37 755.495C1218.5 755.495 1223.3 754.267 1226.75 751.813C1230.05 749.435 1232.43 746.366 1233.88 742.608C1235.42 738.619 1236.34 734.362 1236.64 729.836C1236.8 725.463 1236.87 721.129 1236.87 716.834V625.243H1288.77Z" fill="url(#paint2_linear_969_102)"/>
<path d="M948.258 793.466V625.243H1000.04V750.317H1074.48V793.466H948.258Z" fill="url(#paint3_linear_969_102)"/>
<path d="M738.916 793.466V625.243H825.558C837.065 625.243 846.807 627.046 854.784 630.651C862.685 634.257 868.976 638.974 873.655 644.804C882.937 657.231 887.501 669.888 887.347 682.775C887.194 702.873 881.057 717.869 868.937 727.765C856.817 737.66 840.939 742.608 821.301 742.608H790.694V793.466H738.916ZM790.694 668.392V702.566H810.715C817.773 702.719 824.063 701.837 829.586 699.919C832.27 698.692 834.457 696.813 836.144 694.281C837.602 691.903 838.33 688.682 838.33 684.616C838.177 677.099 835.722 672.458 830.966 670.693C826.134 669.006 820.419 668.239 813.822 668.392H790.694Z" fill="url(#paint4_linear_969_102)"/>
<mask id="mask0_969_102" style="mask-type:luminance" maskUnits="userSpaceOnUse" x="430" y="0" width="204" height="232">
<path d="M430.917 0.364319H494.496C529.465 0.364319 558.076 28.9752 558.076 63.9444V104.028C554.139 172.997 579.147 215.383 633.1 231.187C580.942 227.741 531.406 205.528 493.991 168.112C456.576 130.697 434.363 81.1616 430.917 29.0031V0.364319H430.917Z" fill="white"/>
</mask>
<g mask="url(#mask0_969_102)">
<path d="M633.1 0.364319H430.917V231.187H633.1V0.364319Z" fill="url(#paint5_linear_969_102)"/>
</g>
<mask id="mask1_969_102" style="mask-type:luminance" maskUnits="userSpaceOnUse" x="557" y="104" width="105" height="128">
<path d="M558.076 104.027C554.139 172.996 579.147 215.382 633.1 231.186H661.739V167.606C661.739 132.638 633.128 104.027 598.158 104.027H558.076V104.027Z" fill="white"/>
</mask>
<g mask="url(#mask1_969_102)">
<path d="M661.739 104.027H554.139V231.186H661.739V104.027Z" fill="url(#paint6_linear_969_102)"/>
</g>
<mask id="mask2_969_102" style="mask-type:luminance" maskUnits="userSpaceOnUse" x="355" y="130" width="204" height="232">
<path d="M558.076 361.198H494.496C459.527 361.198 430.916 332.587 430.916 297.618V257.535C434.854 188.566 409.845 146.18 355.892 130.376C408.05 133.822 457.586 156.036 495.001 193.451C532.416 230.867 554.63 280.402 558.076 332.56V361.198V361.198Z" fill="white"/>
</mask>
<g mask="url(#mask2_969_102)">
<path d="M558.076 130.376H355.892V361.198H558.076V130.376Z" fill="url(#paint7_linear_969_102)"/>
</g>
<mask id="mask3_969_102" style="mask-type:luminance" maskUnits="userSpaceOnUse" x="327" y="130" width="105" height="128">
<path d="M430.917 257.535C434.854 188.566 409.846 146.18 355.892 130.376H327.254V193.956C327.254 228.925 355.865 257.535 390.834 257.535H430.917V257.535Z" fill="white"/>
</mask>
<g mask="url(#mask3_969_102)">
<path d="M434.854 130.376H327.254V257.535H434.854V130.376Z" fill="url(#paint8_linear_969_102)"/>
</g>
<defs>
<linearGradient id="paint0_linear_969_102" x1="0.421883" y1="468.449" x2="552.107" y2="468.449" gradientUnits="userSpaceOnUse">
<stop stop-color="#3E84C5"/>
<stop offset="1" stop-color="#16BAE6"/>
</linearGradient>
<linearGradient id="paint1_linear_969_102" x1="738.916" y1="710.163" x2="1501.33" y2="710.163" gradientUnits="userSpaceOnUse">
<stop stop-color="#3E84C5"/>
<stop offset="1" stop-color="#16BAE6"/>
</linearGradient>
<linearGradient id="paint2_linear_969_102" x1="738.916" y1="710.163" x2="1501.33" y2="710.163" gradientUnits="userSpaceOnUse">
<stop stop-color="#3E84C5"/>
<stop offset="1" stop-color="#16BAE6"/>
</linearGradient>
<linearGradient id="paint3_linear_969_102" x1="738.916" y1="710.163" x2="1501.33" y2="710.163" gradientUnits="userSpaceOnUse">
<stop stop-color="#3E84C5"/>
<stop offset="1" stop-color="#16BAE6"/>
</linearGradient>
<linearGradient id="paint4_linear_969_102" x1="738.916" y1="710.163" x2="1501.33" y2="710.163" gradientUnits="userSpaceOnUse">
<stop stop-color="#3E84C5"/>
<stop offset="1" stop-color="#16BAE6"/>
</linearGradient>
<linearGradient id="paint5_linear_969_102" x1="428.238" y1="-30.0883" x2="692.524" y2="341.406" gradientUnits="userSpaceOnUse">
<stop stop-color="#242269"/>
<stop offset="1" stop-color="#27B1FC"/>
</linearGradient>
<linearGradient id="paint6_linear_969_102" x1="554.139" y1="168.19" x2="661.739" y2="168.19" gradientUnits="userSpaceOnUse">
<stop stop-color="#3E84C5"/>
<stop offset="1" stop-color="#16BAE6"/>
</linearGradient>
<linearGradient id="paint7_linear_969_102" x1="353.214" y1="99.9235" x2="617.5" y2="471.417" gradientUnits="userSpaceOnUse">
<stop stop-color="#242269"/>
<stop offset="1" stop-color="#27B1FC"/>
</linearGradient>
<linearGradient id="paint8_linear_969_102" x1="327.254" y1="194.539" x2="434.854" y2="194.539" gradientUnits="userSpaceOnUse">
<stop stop-color="#3E84C5"/>
<stop offset="1" stop-color="#16BAE6"/>
</linearGradient>
</defs>
</svg>
